<svg width="752" height="614" viewBox="0 0 752 614" fill="none" xmlns="http://www.w3.org/2000/svg">
<g id="undraw_clean_up_ucm0 1" clip-path="url(#clip0)">
<path id="Vector" d="M712.067 501.376C725.219 548.196 598.628 655.167 375.905 595.451C196.582 547.372 39.7437 527.008 39.7437 501.376C39.7437 475.744 190.248 502.631 375.905 502.631C561.562 502.631 705.135 476.7 712.067 501.376Z" fill="#3F3D56"/>
<path id="Vector_2" opacity="0.1" d="M712.067 501.376C725.219 548.196 598.628 655.167 375.905 595.451C196.582 547.372 39.7437 527.008 39.7437 501.376C39.7437 475.744 190.248 502.631 375.905 502.631C561.562 502.631 705.135 476.7 712.067 501.376Z" fill="black"/>
<path id="Vector_3" d="M712.067 501.376C725.219 548.196 598.628 607.502 375.905 547.787C196.582 499.707 39.7437 527.008 39.7437 501.376C39.7437 475.745 190.248 454.966 375.905 454.966C561.562 454.966 705.135 476.7 712.067 501.376Z" fill="#3F3D56"/>
<path id="Vector_4" opacity="0.1" d="M484 535C498.359 535 510 530.971 510 526C510 521.029 498.359 517 484 517C469.641 517 458 521.029 458 526C458 530.971 469.641 535 484 535Z" fill="black"/>
<path id="Vector_5" opacity="0.1" d="M590 535C604.359 535 616 530.971 616 526C616 521.029 604.359 517 590 517C575.641 517 564 521.029 564 526C564 530.971 575.641 535 590 535Z" fill="black"/>
<path id="Vector_6" opacity="0.1" d="M376 509C422.944 509 461 498.703 461 486C461 473.297 422.944 463 376 463C329.056 463 291 473.297 291 486C291 498.703 329.056 509 376 509Z" fill="black"/>
<path id="Vector_7" d="M752 416V0H0V416H347V471.609C329.669 473.685 318 477.559 318 482C318 488.627 343.967 494 376 494C408.033 494 434 488.627 434 482C434 477.559 422.331 473.685 405 471.609V416H752Z" fill="#3F3D56"/>
<path id="Vector_8" d="M713 14.5745H39V387.426H713V14.5745Z" fill="#F2F2F2"/>
<path id="Vector_9" opacity="0.1" d="M713 15C713 15 433 44 382 156C331 268 39 387 39 387H713V15Z" fill="black"/>
<path id="Vector_10" d="M376 416C382.075 416 387 411.075 387 405C387 398.925 382.075 394 376 394C369.925 394 365 398.925 365 405C365 411.075 369.925 416 376 416Z" fill="#00BFA6"/>
</g>
<defs>
<clipPath id="clip0">
<rect width="752" height="613.121" fill="white"/>
</clipPath>
</defs>
</svg>
