<svg width="948" height="604" viewBox="0 0 948 604" fill="none" xmlns="http://www.w3.org/2000/svg">
<g id="for">
<g id="softwaregirl" clip-path="url(#clip0)">
<g id="Vector" filter="url(#filter0_i)">
<path d="M256.25 246.52H200.25V302.52H256.25V246.52Z" fill="#9E616A"/>
</g>
<path id="Vector_2" d="M165.326 581.214L176.36 581.213L181.608 538.656L165.324 538.657L165.326 581.214Z" fill="#9E616A"/>
<g id="pant">
<g id="Vector_3" filter="url(#filter1_d)">
<path d="M195.61 593.65L179.03 582.2V574.73L177.15 574.84L165.33 575.55L161.59 575.77L159.46 601.31L159.39 602.16H167.22L167.38 601.31L168.62 594.77L171.79 601.31L172.2 602.16H192.96C194.196 602.158 195.381 601.666 196.256 600.793C197.131 599.92 197.625 598.736 197.63 597.5C197.631 596.743 197.447 595.996 197.095 595.326C196.743 594.655 196.234 594.08 195.61 593.65V593.65Z" fill="#2F2E41"/>
</g>
</g>
<path id="Vector_4" d="M229.853 574.209L240.457 577.258L257.265 537.81L241.615 533.309L229.853 574.209Z" fill="#9E616A"/>
<g id="Vector_5" filter="url(#filter2_d)">
<path d="M255.52 594.54L242.75 578.95L244.82 571.77L242.98 571.36L232.73 569.06L231.42 568.77L227.77 567.95L218.36 592.7L225.88 594.87L229.27 588.15L230.66 596.24L235.4 597.6L248.29 601.31L250.62 601.98C251.577 602.257 252.597 602.221 253.531 601.877C254.465 601.532 255.265 600.898 255.813 600.066C256.36 599.235 256.628 598.249 256.575 597.255C256.522 596.261 256.153 595.309 255.52 594.54Z" fill="#2F2E41"/>
</g>
<path id="Vector_6" d="M943.98 0H359.52C358.652 0.00264689 357.82 0.349385 357.207 0.964218C356.594 1.57905 356.25 2.41182 356.25 3.28V22.53C356.25 23.3982 356.594 24.231 357.207 24.8458C357.82 25.4606 358.652 25.8074 359.52 25.81H943.98C944.848 25.8075 945.68 25.4608 946.293 24.8459C946.906 24.231 947.25 23.3982 947.25 22.53V3.28C947.25 2.41179 946.906 1.57898 946.293 0.964127C945.68 0.349274 944.848 0.00255724 943.98 0Z" fill="#E4E4E4"/>
<g id="ellipseThree" filter="url(#filter3_d)">
<path d="M375.249 16.6127C377.816 16.6127 379.897 14.5318 379.897 11.9648C379.897 9.39789 377.816 7.31699 375.249 7.31699C372.682 7.31699 370.601 9.39789 370.601 11.9648C370.601 14.5318 372.682 16.6127 375.249 16.6127Z" fill="white"/>
</g>
<g id="ellipseSecond" filter="url(#filter4_d)">
<path d="M392.89 16.6127C395.457 16.6127 397.538 14.5318 397.538 11.9648C397.538 9.39789 395.457 7.31699 392.89 7.31699C390.323 7.31699 388.243 9.39789 388.243 11.9648C388.243 14.5318 390.323 16.6127 392.89 16.6127Z" fill="white"/>
</g>
<g id="ellipseFirst" filter="url(#filter5_d)">
<path d="M410.533 16.6127C413.1 16.6127 415.181 14.5318 415.181 11.9648C415.181 9.39789 413.1 7.31699 410.533 7.31699C407.966 7.31699 405.885 9.39789 405.885 11.9648C405.885 14.5318 407.966 16.6127 410.533 16.6127Z" fill="white"/>
</g>
<path id="Vector_7" d="M926.69 5.75998H906.38C905.981 5.75998 905.598 5.91855 905.316 6.20079C905.033 6.48303 904.875 6.86583 904.875 7.26498C904.875 7.66413 905.033 8.04694 905.316 8.32918C905.598 8.61142 905.981 8.76999 906.38 8.76999H926.69C927.089 8.76999 927.472 8.61142 927.754 8.32918C928.036 8.04694 928.195 7.66413 928.195 7.26498C928.195 6.86583 928.036 6.48303 927.754 6.20079C927.472 5.91855 927.089 5.75998 926.69 5.75998V5.75998Z" fill="white"/>
<path id="Vector_8" d="M926.69 11.4H906.38C906.182 11.4 905.987 11.4389 905.804 11.5146C905.621 11.5902 905.455 11.7011 905.316 11.8408C905.176 11.9806 905.065 12.1465 904.99 12.3291C904.914 12.5117 904.875 12.7074 904.875 12.905C904.875 13.1026 904.914 13.2983 904.99 13.4809C905.065 13.6635 905.176 13.8294 905.316 13.9692C905.455 14.1089 905.621 14.2198 905.804 14.2954C905.987 14.3711 906.182 14.41 906.38 14.41H926.69C926.888 14.41 927.083 14.3711 927.266 14.2954C927.448 14.2198 927.614 14.1089 927.754 13.9692C927.894 13.8294 928.005 13.6635 928.08 13.4809C928.156 13.2983 928.195 13.1026 928.195 12.905C928.195 12.7074 928.156 12.5117 928.08 12.3291C928.005 12.1465 927.894 11.9806 927.754 11.8408C927.614 11.7011 927.448 11.5902 927.266 11.5146C927.083 11.4389 926.888 11.4 926.69 11.4Z" fill="white"/>
<path id="Vector_9" d="M926.69 17.04H906.38C905.981 17.04 905.598 17.1986 905.316 17.4808C905.033 17.763 904.875 18.1458 904.875 18.545C904.875 18.9441 905.033 19.3269 905.316 19.6092C905.598 19.8914 905.981 20.05 906.38 20.05H926.69C927.089 20.05 927.472 19.8914 927.754 19.6092C928.036 19.3269 928.195 18.9441 928.195 18.545C928.195 18.1458 928.036 17.763 927.754 17.4808C927.472 17.1986 927.089 17.04 926.69 17.04V17.04Z" fill="white"/>
<g id="Vector_10" filter="url(#filter6_d)">
<path d="M924.38 81.49H772.95C771.895 81.4927 770.885 81.9128 770.139 82.6587C769.393 83.4045 768.973 84.4152 768.97 85.47V146.92C768.973 147.975 769.393 148.986 770.139 149.731C770.885 150.477 771.895 150.897 772.95 150.9H924.38C925.435 150.899 926.447 150.479 927.193 149.733C927.939 148.987 928.359 147.975 928.36 146.92V85.47C928.359 84.4147 927.939 83.403 927.193 82.6568C926.447 81.9107 925.435 81.491 924.38 81.49Z" fill="#D8D4D4"/>
</g>
<path id="Vector_11" d="M909.96 170.82H787.37C786.104 170.82 784.889 171.323 783.994 172.219C783.098 173.114 782.595 174.329 782.595 175.595C782.595 176.861 783.098 178.076 783.994 178.971C784.889 179.867 786.104 180.37 787.37 180.37H909.96C916.18 180.46 916.12 170.73 909.96 170.82Z" fill="#CACACA"/>
<g id="Vector_12" filter="url(#filter7_d)">
<path d="M909.96 192.71H787.37C786.104 192.71 784.889 193.213 783.994 194.109C783.098 195.004 782.595 196.219 782.595 197.485C782.595 198.751 783.098 199.966 783.994 200.861C784.889 201.757 786.104 202.26 787.37 202.26H909.96C916.18 202.35 916.12 192.62 909.96 192.71Z" fill="#CACACA"/>
</g>
<path id="Vector_13" d="M909.96 214.6H787.37C786.104 214.6 784.889 215.103 783.994 215.999C783.098 216.894 782.595 218.109 782.595 219.375C782.595 220.641 783.098 221.856 783.994 222.751C784.889 223.647 786.104 224.15 787.37 224.15H909.96C916.18 224.24 916.12 214.51 909.96 214.6Z" fill="#E4E4E4"/>
<g id="Vector_14" filter="url(#filter8_b)">
<path d="M725.38 81.49H573.95C572.895 81.4927 571.885 81.9128 571.139 82.6587C570.393 83.4045 569.973 84.4152 569.97 85.47V146.92C569.973 147.975 570.393 148.986 571.139 149.731C571.885 150.477 572.895 150.897 573.95 150.9H725.38C726.435 150.899 727.447 150.479 728.193 149.733C728.939 148.987 729.359 147.975 729.36 146.92V85.47C729.359 84.4147 728.939 83.403 728.193 82.6568C727.447 81.9107 726.435 81.491 725.38 81.49Z" fill="#1F1B1B" fill-opacity="0.8"/>
</g>
<g id="Vector_15" filter="url(#filter9_d)">
<path d="M710.96 170.82H588.37C587.104 170.82 585.889 171.323 584.994 172.219C584.098 173.114 583.595 174.329 583.595 175.595C583.595 176.861 584.098 178.076 584.994 178.971C585.889 179.867 587.104 180.37 588.37 180.37H710.96C717.18 180.46 717.12 170.73 710.96 170.82Z" fill="#302A2A"/>
</g>
<g id="Vector_16" filter="url(#filter10_d)">
<path d="M710.96 192.71H588.37C587.104 192.71 585.889 193.213 584.994 194.109C584.098 195.004 583.595 196.219 583.595 197.485C583.595 198.751 584.098 199.966 584.994 200.861C585.889 201.757 587.104 202.26 588.37 202.26H710.96C717.18 202.35 717.12 192.62 710.96 192.71Z" fill="#2F2E41" fill-opacity="0.72" shape-rendering="crispEdges"/>
</g>
<path id="Vector_17" d="M710.96 215.1L710.967 215.1C712.362 215.08 713.379 215.61 714.055 216.393C714.741 217.188 715.099 218.273 715.103 219.377C715.106 220.48 714.754 221.563 714.071 222.357C713.398 223.139 712.379 223.67 710.967 223.65H710.96H588.37C587.236 223.65 586.149 223.2 585.347 222.398C584.546 221.596 584.095 220.509 584.095 219.375C584.095 218.241 584.546 217.154 585.347 216.352C586.149 215.55 587.236 215.1 588.37 215.1L710.96 215.1Z" fill="#181818" stroke="black"/>
<g id="backArm" filter="url(#filter11_i)">
<path d="M345.668 197.707C345.475 198.276 345.333 198.861 345.245 199.455L283.24 188.495L229.833 159.696C226.473 157.884 222.551 157.413 218.859 158.379C215.166 159.345 211.977 161.676 209.935 164.901C207.892 168.125 207.149 172.005 207.855 175.756C208.56 179.507 210.662 182.851 213.736 185.114C223.698 192.446 234.743 198.18 246.472 202.109L285.192 215.079L353.013 210.732C354.896 211.138 356.857 210.991 358.659 210.309C360.461 209.628 362.028 208.44 363.17 206.888C364.313 205.337 364.983 203.489 365.1 201.566C365.217 199.643 364.775 197.727 363.829 196.048C362.883 194.37 361.471 193.001 359.765 192.106C358.059 191.211 356.131 190.828 354.212 191.004C352.293 191.179 350.466 191.905 348.95 193.094C347.434 194.283 346.295 195.885 345.668 197.707Z" fill="#9E616A"/>
</g>
<g id="Vector_18" filter="url(#filter12_d)">
<path d="M498.18 197.9H305.16C303.813 197.902 302.522 198.438 301.57 199.39C300.618 200.342 300.082 201.633 300.08 202.98V281.29C300.082 282.637 300.618 283.928 301.57 284.88C302.522 285.832 303.813 286.368 305.16 286.37H498.18C499.525 286.366 500.814 285.829 501.764 284.877C502.714 283.925 503.249 282.635 503.25 281.29V202.98C503.249 201.635 502.714 200.345 501.764 199.393C500.814 198.441 499.525 197.904 498.18 197.9V197.9Z" fill="#12DDC2" fill-opacity="0.76" shape-rendering="crispEdges"/>
</g>
<g id="Vector_19" filter="url(#filter13_d)">
<path d="M479.8 311.76H323.54C321.925 311.76 320.376 312.402 319.234 313.544C318.092 314.686 317.45 316.235 317.45 317.85C317.45 319.465 318.092 321.014 319.234 322.156C320.376 323.298 321.925 323.94 323.54 323.94H479.8C487.73 324.05 487.65 311.65 479.8 311.76Z" fill="#00BFA6" fill-opacity="0.83" shape-rendering="crispEdges"/>
</g>
<g id="Vector_20" filter="url(#filter14_d)">
<path d="M479.8 339.66H323.54C321.925 339.66 320.376 340.302 319.234 341.444C318.092 342.586 317.45 344.135 317.45 345.75C317.45 347.365 318.092 348.914 319.234 350.056C320.376 351.198 321.925 351.84 323.54 351.84H479.8C487.73 351.95 487.65 339.55 479.8 339.66Z" fill="#09F1D3"/>
</g>
<g id="Vector_21" filter="url(#filter15_d)">
<path d="M479.8 367.57H323.54C322.741 367.57 321.95 367.727 321.211 368.033C320.473 368.339 319.802 368.787 319.237 369.352C318.672 369.917 318.224 370.588 317.918 371.326C317.612 372.065 317.455 372.856 317.455 373.655C317.455 374.454 317.612 375.245 317.918 375.984C318.224 376.722 318.672 377.393 319.237 377.958C319.802 378.523 320.473 378.971 321.211 379.277C321.95 379.583 322.741 379.74 323.54 379.74H479.8C487.73 379.85 487.65 367.46 479.8 367.57Z" fill="#00BFA6"/>
</g>
<g id="Group 2">
<g id="head" filter="url(#filter16_i)">
<path d="M257.364 131.897C265.24 117.491 259.945 99.4274 245.539 91.552C231.132 83.6766 213.069 88.9713 205.193 103.378C197.318 117.785 202.613 135.848 217.019 143.723C231.426 151.599 249.489 146.304 257.364 131.897Z" fill="#9E616A"/>
</g>
<g id="hair" filter="url(#filter17_d)">
<path d="M236.25 81.52H217.046C204.456 81.52 194.25 93.0019 194.25 107.166C184.75 116.705 187.601 128.655 195.139 141.52C208.742 143.212 222.048 146.771 234.68 152.096L236.472 144.441L240.008 154.522C243.152 156.046 246.27 157.712 249.361 159.52C245.753 142.569 244.269 125.657 246.746 112.52H253.25V105.402L255.458 112.52H267.25C267.25 108.449 266.448 104.418 264.89 100.657C263.332 96.8957 261.049 93.4783 258.17 90.5997C255.292 87.721 251.874 85.4376 248.113 83.8797C244.352 82.3218 240.321 81.52 236.25 81.52Z" fill="#301515"/>
</g>
</g>
<g id="Vector_22" filter="url(#filter18_d)">
<path d="M234.25 155.52L198.295 153.961L197.328 157.635C189.373 187.857 188.144 219.456 193.729 250.205V250.205C194.796 251.21 195.577 252.482 195.989 253.889C196.401 255.297 196.43 256.789 196.073 258.211L195.557 260.27L195.605 260.346C197.3 263.021 197.875 266.255 197.206 269.35V269.35L199.004 279.252L257.25 253.52L270.25 208.52L234.25 155.52Z" fill="#DDDDDD"/>
</g>
<g id="front arm" filter="url(#filter19_i)">
<path d="M323.357 250.364C322.953 250.808 322.59 251.288 322.272 251.798L269.769 217.041L232.259 169.347C229.899 166.346 226.49 164.352 222.718 163.767C218.946 163.181 215.092 164.048 211.934 166.192C208.776 168.336 206.549 171.598 205.701 175.32C204.854 179.042 205.449 182.946 207.367 186.247V186.247C213.583 196.941 221.428 206.601 230.621 214.878L260.967 242.201L324.904 265.236C326.47 266.359 328.326 267.006 330.251 267.099C332.175 267.191 334.085 266.726 335.751 265.758C337.418 264.791 338.769 263.363 339.642 261.645C340.516 259.928 340.874 257.995 340.675 256.079C340.475 254.162 339.726 252.344 338.518 250.844C337.31 249.343 335.694 248.223 333.864 247.62C332.034 247.016 330.069 246.954 328.205 247.44C326.341 247.927 324.657 248.942 323.357 250.364L323.357 250.364Z" fill="#9E616A"/>
</g>
<path id="Vector_23" d="M437.533 150.665C431.85 150.665 426.294 148.98 421.569 145.822C416.843 142.665 413.16 138.177 410.985 132.926C408.81 127.675 408.241 121.898 409.35 116.323C410.459 110.749 413.196 105.629 417.214 101.61C421.233 97.5917 426.353 94.8549 431.927 93.7462C437.502 92.6374 443.279 93.2065 448.53 95.3814C453.781 97.5563 458.269 101.239 461.426 105.965C464.584 110.69 466.269 116.246 466.269 121.929C466.269 129.551 463.241 136.86 457.852 142.248C452.464 147.637 445.155 150.665 437.533 150.665Z" fill="#E4E4E4"/>
<g id="plus" filter="url(#filter20_d)">
<path d="M448.872 119.095H440.368V110.591C440.368 109.839 440.069 109.118 439.538 108.587C439.006 108.055 438.285 107.757 437.533 107.757C436.782 107.757 436.061 108.055 435.529 108.587C434.998 109.118 434.699 109.839 434.699 110.591V119.095H426.195C425.444 119.096 424.725 119.396 424.194 119.927C423.664 120.459 423.366 121.179 423.366 121.93C423.366 122.68 423.664 123.401 424.194 123.932C424.725 124.463 425.444 124.763 426.195 124.764H434.699V133.268C434.699 134.02 434.998 134.741 435.529 135.272C436.061 135.804 436.782 136.102 437.533 136.102C438.285 136.102 439.006 135.804 439.538 135.272C440.069 134.741 440.368 134.02 440.368 133.268V124.764H448.872C449.244 124.765 449.614 124.692 449.958 124.55C450.303 124.408 450.616 124.199 450.879 123.936C451.143 123.672 451.353 123.36 451.495 123.016C451.638 122.671 451.712 122.302 451.712 121.93C451.712 121.557 451.638 121.188 451.495 120.844C451.353 120.499 451.143 120.187 450.879 119.923C450.616 119.66 450.303 119.451 449.958 119.309C449.614 119.167 449.244 119.094 448.872 119.095V119.095Z" fill="white" fill-opacity="0.65" shape-rendering="crispEdges"/>
</g>
<g id="pants" filter="url(#filter21_d)">
<path d="M294.239 471.459C295.173 468.996 295.518 466.348 295.245 463.729C294.972 461.109 294.09 458.589 292.669 456.371L267.25 324.52L257.25 274.52H197.25C197.25 274.52 159.75 316.02 167.75 369.02L165.511 443.66C163.387 448.78 162.863 454.423 164.007 459.846L164.898 464.068L164.555 464.704C162.918 467.733 162.038 471.114 161.991 474.557C161.945 478 162.732 481.404 164.286 484.476L161.75 569.02L179.75 568.02L206.25 469.52L223.75 381.02L253.25 449.52L254.25 465.52L253.765 479.623L230.75 562.02L250.25 569.52L294.239 471.459Z" fill="#1C1C27"/>
<path d="M162.266 568.491L164.786 484.491L164.79 484.364L164.732 484.251C163.215 481.25 162.446 477.926 162.491 474.564C162.537 471.202 163.396 467.9 164.995 464.942L165.338 464.306L165.426 464.145L165.388 463.965L164.497 459.743C163.373 454.418 163.887 448.878 165.973 443.852L166.008 443.767L166.011 443.675L168.25 369.035L168.251 368.99L168.244 368.945C164.265 342.58 171.601 319.061 179.949 302.116C184.121 293.645 188.544 286.825 191.922 282.124C193.61 279.774 195.038 277.954 196.042 276.723C196.544 276.107 196.94 275.639 197.21 275.325C197.319 275.198 197.408 275.096 197.475 275.02H256.84L266.759 324.615L266.76 324.618L292.178 456.466L292.196 456.56L292.248 456.641C293.627 458.793 294.483 461.238 294.748 463.78C295.012 466.318 294.679 468.882 293.777 471.268L249.988 568.883L231.354 561.717L254.246 479.758L254.262 479.7L254.264 479.641L254.75 465.537L254.751 465.513L254.749 465.489L253.749 449.489L253.744 449.402L253.709 449.322L224.209 380.822L223.572 379.343L223.259 380.923L205.763 469.406L179.361 567.541L162.266 568.491Z" stroke="black"/>
</g>
<path id="floor" d="M439.68 602.5C439.679 602.815 439.554 603.118 439.331 603.341C439.108 603.564 438.806 603.689 438.49 603.69H1.18994C0.874334 603.69 0.571649 603.565 0.34848 603.341C0.125312 603.118 -6.10352e-05 602.816 -6.10352e-05 602.5C-6.10352e-05 602.184 0.125312 601.882 0.34848 601.659C0.571649 601.435 0.874334 601.31 1.18994 601.31H438.49C438.647 601.31 438.802 601.34 438.946 601.4C439.091 601.459 439.222 601.547 439.333 601.658C439.443 601.768 439.531 601.899 439.591 602.044C439.65 602.189 439.681 602.344 439.68 602.5V602.5Z" fill="#CACACA"/>
</g>
</g>
<defs>
<filter id="filter0_i" x="200.25" y="246.52" width="56" height="60" filterUnits="userSpaceOnUse" color-interpolation-filters="sRGB">
<feFlood flood-opacity="0" result="BackgroundImageFix"/>
<feBlend mode="normal" in="SourceGraphic" in2="BackgroundImageFix" result="shape"/>
<feColorMatrix in="SourceAlpha" type="matrix" values="0 0 0 0 0 0 0 0 0 0 0 0 0 0 0 0 0 0 127 0" result="hardAlpha"/>
<feOffset dy="4"/>
<feGaussianBlur stdDeviation="2"/>
<feComposite in2="hardAlpha" operator="arithmetic" k2="-1" k3="1"/>
<feColorMatrix type="matrix" values="0 0 0 0 0 0 0 0 0 0 0 0 0 0 0 0 0 0 0.25 0"/>
<feBlend mode="normal" in2="shape" result="effect1_innerShadow"/>
</filter>
<filter id="filter1_d" x="155.39" y="574.73" width="46.2398" height="35.43" filterUnits="userSpaceOnUse" color-interpolation-filters="sRGB">
<feFlood flood-opacity="0" result="BackgroundImageFix"/>
<feColorMatrix in="SourceAlpha" type="matrix" values="0 0 0 0 0 0 0 0 0 0 0 0 0 0 0 0 0 0 127 0" result="hardAlpha"/>
<feOffset dy="4"/>
<feGaussianBlur stdDeviation="2"/>
<feComposite in2="hardAlpha" operator="out"/>
<feColorMatrix type="matrix" values="0 0 0 0 0 0 0 0 0 0 0 0 0 0 0 0 0 0 0.25 0"/>
<feBlend mode="normal" in2="BackgroundImageFix" result="effect1_dropShadow"/>
<feBlend mode="normal" in="SourceGraphic" in2="effect1_dropShadow" result="shape"/>
</filter>
<filter id="filter2_d" x="214.36" y="567.95" width="46.2215" height="42.2145" filterUnits="userSpaceOnUse" color-interpolation-filters="sRGB">
<feFlood flood-opacity="0" result="BackgroundImageFix"/>
<feColorMatrix in="SourceAlpha" type="matrix" values="0 0 0 0 0 0 0 0 0 0 0 0 0 0 0 0 0 0 127 0" result="hardAlpha"/>
<feOffset dy="4"/>
<feGaussianBlur stdDeviation="2"/>
<feComposite in2="hardAlpha" operator="out"/>
<feColorMatrix type="matrix" values="0 0 0 0 0 0 0 0 0 0 0 0 0 0 0 0 0 0 0.25 0"/>
<feBlend mode="normal" in2="BackgroundImageFix" result="effect1_dropShadow"/>
<feBlend mode="normal" in="SourceGraphic" in2="effect1_dropShadow" result="shape"/>
</filter>
<filter id="filter3_d" x="366.601" y="7.31699" width="17.2957" height="17.2957" filterUnits="userSpaceOnUse" color-interpolation-filters="sRGB">
<feFlood flood-opacity="0" result="BackgroundImageFix"/>
<feColorMatrix in="SourceAlpha" type="matrix" values="0 0 0 0 0 0 0 0 0 0 0 0 0 0 0 0 0 0 127 0" result="hardAlpha"/>
<feOffset dy="4"/>
<feGaussianBlur stdDeviation="2"/>
<feComposite in2="hardAlpha" operator="out"/>
<feColorMatrix type="matrix" values="0 0 0 0 0 0 0 0 0 0 0 0 0 0 0 0 0 0 0.25 0"/>
<feBlend mode="normal" in2="BackgroundImageFix" result="effect1_dropShadow"/>
<feBlend mode="normal" in="SourceGraphic" in2="effect1_dropShadow" result="shape"/>
</filter>
<filter id="filter4_d" x="384.243" y="7.31699" width="17.2957" height="17.2957" filterUnits="userSpaceOnUse" color-interpolation-filters="sRGB">
<feFlood flood-opacity="0" result="BackgroundImageFix"/>
<feColorMatrix in="SourceAlpha" type="matrix" values="0 0 0 0 0 0 0 0 0 0 0 0 0 0 0 0 0 0 127 0" result="hardAlpha"/>
<feOffset dy="4"/>
<feGaussianBlur stdDeviation="2"/>
<feComposite in2="hardAlpha" operator="out"/>
<feColorMatrix type="matrix" values="0 0 0 0 0 0 0 0 0 0 0 0 0 0 0 0 0 0 0.25 0"/>
<feBlend mode="normal" in2="BackgroundImageFix" result="effect1_dropShadow"/>
<feBlend mode="normal" in="SourceGraphic" in2="effect1_dropShadow" result="shape"/>
</filter>
<filter id="filter5_d" x="401.885" y="7.31699" width="17.2957" height="17.2957" filterUnits="userSpaceOnUse" color-interpolation-filters="sRGB">
<feFlood flood-opacity="0" result="BackgroundImageFix"/>
<feColorMatrix in="SourceAlpha" type="matrix" values="0 0 0 0 0 0 0 0 0 0 0 0 0 0 0 0 0 0 127 0" result="hardAlpha"/>
<feOffset dy="4"/>
<feGaussianBlur stdDeviation="2"/>
<feComposite in2="hardAlpha" operator="out"/>
<feColorMatrix type="matrix" values="0 0 0 0 0 0 0 0 0 0 0 0 0 0 0 0 0 0 0.25 0"/>
<feBlend mode="normal" in2="BackgroundImageFix" result="effect1_dropShadow"/>
<feBlend mode="normal" in="SourceGraphic" in2="effect1_dropShadow" result="shape"/>
</filter>
<filter id="filter6_d" x="764.97" y="81.49" width="167.39" height="77.41" filterUnits="userSpaceOnUse" color-interpolation-filters="sRGB">
<feFlood flood-opacity="0" result="BackgroundImageFix"/>
<feColorMatrix in="SourceAlpha" type="matrix" values="0 0 0 0 0 0 0 0 0 0 0 0 0 0 0 0 0 0 127 0" result="hardAlpha"/>
<feOffset dy="4"/>
<feGaussianBlur stdDeviation="2"/>
<feComposite in2="hardAlpha" operator="out"/>
<feColorMatrix type="matrix" values="0 0 0 0 0 0 0 0 0 0 0 0 0 0 0 0 0 0 0.25 0"/>
<feBlend mode="normal" in2="BackgroundImageFix" result="effect1_dropShadow"/>
<feBlend mode="normal" in="SourceGraphic" in2="effect1_dropShadow" result="shape"/>
</filter>
<filter id="filter7_d" x="778.595" y="192.709" width="140.008" height="17.5513" filterUnits="userSpaceOnUse" color-interpolation-filters="sRGB">
<feFlood flood-opacity="0" result="BackgroundImageFix"/>
<feColorMatrix in="SourceAlpha" type="matrix" values="0 0 0 0 0 0 0 0 0 0 0 0 0 0 0 0 0 0 127 0" result="hardAlpha"/>
<feOffset dy="4"/>
<feGaussianBlur stdDeviation="2"/>
<feComposite in2="hardAlpha" operator="out"/>
<feColorMatrix type="matrix" values="0 0 0 0 0 0 0 0 0 0 0 0 0 0 0 0 0 0 0.25 0"/>
<feBlend mode="normal" in2="BackgroundImageFix" result="effect1_dropShadow"/>
<feBlend mode="normal" in="SourceGraphic" in2="effect1_dropShadow" result="shape"/>
</filter>
<filter id="filter8_b" x="565.97" y="77.49" width="167.39" height="77.41" filterUnits="userSpaceOnUse" color-interpolation-filters="sRGB">
<feFlood flood-opacity="0" result="BackgroundImageFix"/>
<feGaussianBlur in="BackgroundImage" stdDeviation="2"/>
<feComposite in2="SourceAlpha" operator="in" result="effect1_backgroundBlur"/>
<feBlend mode="normal" in="SourceGraphic" in2="effect1_backgroundBlur" result="shape"/>
</filter>
<filter id="filter9_d" x="579.595" y="170.819" width="140.008" height="17.5512" filterUnits="userSpaceOnUse" color-interpolation-filters="sRGB">
<feFlood flood-opacity="0" result="BackgroundImageFix"/>
<feColorMatrix in="SourceAlpha" type="matrix" values="0 0 0 0 0 0 0 0 0 0 0 0 0 0 0 0 0 0 127 0" result="hardAlpha"/>
<feOffset dy="4"/>
<feGaussianBlur stdDeviation="2"/>
<feComposite in2="hardAlpha" operator="out"/>
<feColorMatrix type="matrix" values="0 0 0 0 0 0 0 0 0 0 0 0 0 0 0 0 0 0 0.25 0"/>
<feBlend mode="normal" in2="BackgroundImageFix" result="effect1_dropShadow"/>
<feBlend mode="normal" in="SourceGraphic" in2="effect1_dropShadow" result="shape"/>
</filter>
<filter id="filter10_d" x="579.595" y="192.709" width="140.008" height="17.5513" filterUnits="userSpaceOnUse" color-interpolation-filters="sRGB">
<feFlood flood-opacity="0" result="BackgroundImageFix"/>
<feColorMatrix in="SourceAlpha" type="matrix" values="0 0 0 0 0 0 0 0 0 0 0 0 0 0 0 0 0 0 127 0" result="hardAlpha"/>
<feOffset dy="4"/>
<feGaussianBlur stdDeviation="2"/>
<feComposite in2="hardAlpha" operator="out"/>
<feColorMatrix type="matrix" values="0 0 0 0 0 0 0 0 0 0 0 0 0 0 0 0 0 0 0.25 0"/>
<feBlend mode="normal" in2="BackgroundImageFix" result="effect1_dropShadow"/>
<feBlend mode="normal" in="SourceGraphic" in2="effect1_dropShadow" result="shape"/>
</filter>
<filter id="filter11_i" x="207.595" y="157.889" width="157.524" height="61.1902" filterUnits="userSpaceOnUse" color-interpolation-filters="sRGB">
<feFlood flood-opacity="0" result="BackgroundImageFix"/>
<feBlend mode="normal" in="SourceGraphic" in2="BackgroundImageFix" result="shape"/>
<feColorMatrix in="SourceAlpha" type="matrix" values="0 0 0 0 0 0 0 0 0 0 0 0 0 0 0 0 0 0 127 0" result="hardAlpha"/>
<feOffset dy="4"/>
<feGaussianBlur stdDeviation="2"/>
<feComposite in2="hardAlpha" operator="arithmetic" k2="-1" k3="1"/>
<feColorMatrix type="matrix" values="0 0 0 0 0 0 0 0 0 0 0 0 0 0 0 0 0 0 0.25 0"/>
<feBlend mode="normal" in2="shape" result="effect1_innerShadow"/>
</filter>
<filter id="filter12_d" x="296.08" y="197.9" width="211.17" height="96.47" filterUnits="userSpaceOnUse" color-interpolation-filters="sRGB">
<feFlood flood-opacity="0" result="BackgroundImageFix"/>
<feColorMatrix in="SourceAlpha" type="matrix" values="0 0 0 0 0 0 0 0 0 0 0 0 0 0 0 0 0 0 127 0" result="hardAlpha"/>
<feOffset dy="4"/>
<feGaussianBlur stdDeviation="2"/>
<feComposite in2="hardAlpha" operator="out"/>
<feColorMatrix type="matrix" values="0 0 0 0 0 0 0 0 0 0 0 0 0 0 0 0 0 0 0.25 0"/>
<feBlend mode="normal" in2="BackgroundImageFix" result="effect1_dropShadow"/>
<feBlend mode="normal" in="SourceGraphic" in2="effect1_dropShadow" result="shape"/>
</filter>
<filter id="filter13_d" x="313.45" y="311.759" width="176.267" height="20.1814" filterUnits="userSpaceOnUse" color-interpolation-filters="sRGB">
<feFlood flood-opacity="0" result="BackgroundImageFix"/>
<feColorMatrix in="SourceAlpha" type="matrix" values="0 0 0 0 0 0 0 0 0 0 0 0 0 0 0 0 0 0 127 0" result="hardAlpha"/>
<feOffset dy="4"/>
<feGaussianBlur stdDeviation="2"/>
<feComposite in2="hardAlpha" operator="out"/>
<feColorMatrix type="matrix" values="0 0 0 0 0 0 0 0 0 0 0 0 0 0 0 0 0 0 0.25 0"/>
<feBlend mode="normal" in2="BackgroundImageFix" result="effect1_dropShadow"/>
<feBlend mode="normal" in="SourceGraphic" in2="effect1_dropShadow" result="shape"/>
</filter>
<filter id="filter14_d" x="313.45" y="339.659" width="176.267" height="20.1814" filterUnits="userSpaceOnUse" color-interpolation-filters="sRGB">
<feFlood flood-opacity="0" result="BackgroundImageFix"/>
<feColorMatrix in="SourceAlpha" type="matrix" values="0 0 0 0 0 0 0 0 0 0 0 0 0 0 0 0 0 0 127 0" result="hardAlpha"/>
<feOffset dy="4"/>
<feGaussianBlur stdDeviation="2"/>
<feComposite in2="hardAlpha" operator="out"/>
<feColorMatrix type="matrix" values="0 0 0 0 0 0 0 0 0 0 0 0 0 0 0 0 0 0 0.25 0"/>
<feBlend mode="normal" in2="BackgroundImageFix" result="effect1_dropShadow"/>
<feBlend mode="normal" in="SourceGraphic" in2="effect1_dropShadow" result="shape"/>
</filter>
<filter id="filter15_d" x="313.455" y="367.569" width="176.262" height="20.1715" filterUnits="userSpaceOnUse" color-interpolation-filters="sRGB">
<feFlood flood-opacity="0" result="BackgroundImageFix"/>
<feColorMatrix in="SourceAlpha" type="matrix" values="0 0 0 0 0 0 0 0 0 0 0 0 0 0 0 0 0 0 127 0" result="hardAlpha"/>
<feOffset dy="4"/>
<feGaussianBlur stdDeviation="2"/>
<feComposite in2="hardAlpha" operator="out"/>
<feColorMatrix type="matrix" values="0 0 0 0 0 0 0 0 0 0 0 0 0 0 0 0 0 0 0.25 0"/>
<feBlend mode="normal" in2="BackgroundImageFix" result="effect1_dropShadow"/>
<feBlend mode="normal" in="SourceGraphic" in2="effect1_dropShadow" result="shape"/>
</filter>
<filter id="filter16_i" x="201.545" y="87.9033" width="59.4686" height="63.4686" filterUnits="userSpaceOnUse" color-interpolation-filters="sRGB">
<feFlood flood-opacity="0" result="BackgroundImageFix"/>
<feBlend mode="normal" in="SourceGraphic" in2="BackgroundImageFix" result="shape"/>
<feColorMatrix in="SourceAlpha" type="matrix" values="0 0 0 0 0 0 0 0 0 0 0 0 0 0 0 0 0 0 127 0" result="hardAlpha"/>
<feOffset dy="4"/>
<feGaussianBlur stdDeviation="2"/>
<feComposite in2="hardAlpha" operator="arithmetic" k2="-1" k3="1"/>
<feColorMatrix type="matrix" values="0 0 0 0 0 0 0 0 0 0 0 0 0 0 0 0 0 0 0.25 0"/>
<feBlend mode="normal" in2="shape" result="effect1_innerShadow"/>
</filter>
<filter id="filter17_d" x="184.229" y="81.52" width="87.0205" height="86" filterUnits="userSpaceOnUse" color-interpolation-filters="sRGB">
<feFlood flood-opacity="0" result="BackgroundImageFix"/>
<feColorMatrix in="SourceAlpha" type="matrix" values="0 0 0 0 0 0 0 0 0 0 0 0 0 0 0 0 0 0 127 0" result="hardAlpha"/>
<feOffset dy="4"/>
<feGaussianBlur stdDeviation="2"/>
<feComposite in2="hardAlpha" operator="out"/>
<feColorMatrix type="matrix" values="0 0 0 0 0 0 0 0 0 0 0 0 0 0 0 0 0 0 0.25 0"/>
<feBlend mode="normal" in2="BackgroundImageFix" result="effect1_dropShadow"/>
<feBlend mode="normal" in="SourceGraphic" in2="effect1_dropShadow" result="shape"/>
</filter>
<filter id="filter18_d" x="186.29" y="153.961" width="87.9604" height="133.291" filterUnits="userSpaceOnUse" color-interpolation-filters="sRGB">
<feFlood flood-opacity="0" result="BackgroundImageFix"/>
<feColorMatrix in="SourceAlpha" type="matrix" values="0 0 0 0 0 0 0 0 0 0 0 0 0 0 0 0 0 0 127 0" result="hardAlpha"/>
<feOffset dy="4"/>
<feGaussianBlur stdDeviation="2"/>
<feComposite in2="hardAlpha" operator="out"/>
<feColorMatrix type="matrix" values="0 0 0 0 0 0 0 0 0 0 0 0 0 0 0 0 0 0 0.25 0"/>
<feBlend mode="normal" in2="BackgroundImageFix" result="effect1_dropShadow"/>
<feBlend mode="normal" in="SourceGraphic" in2="effect1_dropShadow" result="shape"/>
</filter>
<filter id="filter19_i" x="205.325" y="163.588" width="135.404" height="107.522" filterUnits="userSpaceOnUse" color-interpolation-filters="sRGB">
<feFlood flood-opacity="0" result="BackgroundImageFix"/>
<feBlend mode="normal" in="SourceGraphic" in2="BackgroundImageFix" result="shape"/>
<feColorMatrix in="SourceAlpha" type="matrix" values="0 0 0 0 0 0 0 0 0 0 0 0 0 0 0 0 0 0 127 0" result="hardAlpha"/>
<feOffset dy="4"/>
<feGaussianBlur stdDeviation="2"/>
<feComposite in2="hardAlpha" operator="arithmetic" k2="-1" k3="1"/>
<feColorMatrix type="matrix" values="0 0 0 0 0 0 0 0 0 0 0 0 0 0 0 0 0 0 0.25 0"/>
<feBlend mode="normal" in2="shape" result="effect1_innerShadow"/>
</filter>
<filter id="filter20_d" x="419.366" y="107.757" width="36.3458" height="36.3458" filterUnits="userSpaceOnUse" color-interpolation-filters="sRGB">
<feFlood flood-opacity="0" result="BackgroundImageFix"/>
<feColorMatrix in="SourceAlpha" type="matrix" values="0 0 0 0 0 0 0 0 0 0 0 0 0 0 0 0 0 0 127 0" result="hardAlpha"/>
<feOffset dy="4"/>
<feGaussianBlur stdDeviation="2"/>
<feComposite in2="hardAlpha" operator="out"/>
<feColorMatrix type="matrix" values="0 0 0 0 0 0 0 0 0 0 0 0 0 0 0 0 0 0 0.25 0"/>
<feBlend mode="normal" in2="BackgroundImageFix" result="effect1_dropShadow"/>
<feBlend mode="normal" in="SourceGraphic" in2="effect1_dropShadow" result="shape"/>
</filter>
<filter id="filter21_d" x="157.75" y="274.52" width="141.586" height="303" filterUnits="userSpaceOnUse" color-interpolation-filters="sRGB">
<feFlood flood-opacity="0" result="BackgroundImageFix"/>
<feColorMatrix in="SourceAlpha" type="matrix" values="0 0 0 0 0 0 0 0 0 0 0 0 0 0 0 0 0 0 127 0" result="hardAlpha"/>
<feOffset dy="4"/>
<feGaussianBlur stdDeviation="2"/>
<feComposite in2="hardAlpha" operator="out"/>
<feColorMatrix type="matrix" values="0 0 0 0 0 0 0 0 0 0 0 0 0 0 0 0 0 0 0.25 0"/>
<feBlend mode="normal" in2="BackgroundImageFix" result="effect1_dropShadow"/>
<feBlend mode="normal" in="SourceGraphic" in2="effect1_dropShadow" result="shape"/>
</filter>
<clipPath id="clip0">
<rect width="947.25" height="603.69" fill="white"/>
</clipPath>
</defs>
</svg>
